<?xml version="1.0" encoding="utf-8"?>
<!-- Generator: Adobe Illustrator 24.0.2, SVG Export Plug-In . SVG Version: 6.00 Build 0)  -->
<svg version="1.1" xmlns="http://www.w3.org/2000/svg" xmlns:xlink="http://www.w3.org/1999/xlink" x="0px" y="0px"
	 viewBox="0 0 595.28 841.89" style="enable-background:new 0 0 595.28 841.89;" xml:space="preserve">
<style type="text/css">
	.st0{display:none;}
	.st1{fill:#FFFFFF;stroke:#000000;stroke-miterlimit:10;}
	.st2{fill:none;}
	.st3{fill:none;stroke:#000000;stroke-miterlimit:10;}
	.st4{fill:#FFFFFF;}
</style>
<g id="Слой_1" class="st0">
</g>
<g id="Слой_2">
	<path class="st1" d="M273.98,232.52c-0.25,0.09-0.49,0.18-0.74,0.28v-0.01C273.49,232.7,273.73,232.6,273.98,232.52z"/>
	<rect x="317" y="-242.17" class="st2" width="0.04" height="14.3"/>
	<path class="st3" d="M273.98,232.52c-0.25,0.09-0.49,0.18-0.74,0.28v-0.01C273.49,232.7,273.73,232.6,273.98,232.52z"/>
	<path class="st4" d="M444.83,276.38h-26.68c-2.94-4.03-22.62-30.16-57.55-43.73c-4.85,38.21-9.7,76.41-14.56,114.62
		c0.04,120.58,0.07,241.15,0.11,361.73c-2.09,16.53-5.53,40.72-11.11,69.85c-10.87,56.74-15.63,58-16.98,57.99
		c-3.32-0.02-6.74-7.78-16.59-57.99c-5.71-29.14-9.81-53.28-12.47-69.85c-0.01-120.61-0.02-241.22-0.03-361.83
		c-5.24-38.12-10.49-76.24-15.73-114.37c-35.27,13.85-55.37,40.47-57.64,43.58c-8.91-0.14-17.82-0.28-26.73-0.42
		c23.76-40.44,64.74-67.08,110.07-72.68c-0.01-63.72-0.01-127.43-0.02-191.15h38.29c0.03,63.84,0.06,127.67,0.09,191.51
		C406.96,213.7,442.55,272.46,444.83,276.38z"/>
	<line class="st3" x1="318.01" y1="224.5" x2="318.01" y2="224.5"/>
	<path class="st2" d="M335.7,778.85"/>
	<path class="st3" d="M289,709"/>
</g>
</svg>
