<svg xmlns="http://www.w3.org/2000/svg" width="187.959" height="242.739" viewBox="0 0 187.959 242.739"><defs><style>.a{fill:#eee;}</style></defs><g transform="translate(-0.001 0.004)"><g transform="translate(0.001 -0.004)"><g transform="translate(43.964 57.763)"><g transform="translate(0 0)"><path class="a" d="M202.345,150.773v67.97l-60.4,42.9V196.577h26.982a12.9,12.9,0,0,0,12.892-12.9V182.05a12.891,12.891,0,0,0-12.892-12.892H91.766A12.891,12.891,0,0,0,78.874,182.05v1.627a12.9,12.9,0,0,0,12.892,12.9h26.982v65.069l-60.4-42.9v-67.97A74.1,74.1,0,0,1,128.242,76.79c.7-.045,1.4-.075,2.11-.09.7.023,1.4.045,2.1.09A74.1,74.1,0,0,1,202.345,150.773Z" transform="translate(-58.35 -76.67)"/><path class="a" d="M156.012,76.66v.121c-.7-.045-1.4-.068-2.1-.09C154.611,76.668,155.311,76.66,156.012,76.66Z" transform="translate(-81.909 -76.66)"/></g><g transform="translate(69.892)"><path class="a" d="M153.22,76.69c-.708.015-1.409.045-2.11.09V76.66C151.818,76.66,152.519,76.668,153.22,76.69Z" transform="translate(-151.11 -76.66)"/></g></g><path class="a" d="M106.782,77.3c-3.662-1.854-6.54-5.041-10.262-6.781-9.328-4.37-20.163,1.582-27.939,8.341-32.2,28.029-46.572,72.227-47.672,114.9a94.389,94.389,0,0,1-8.394-53.993,21.706,21.706,0,0,0-6.329,11.166A58.053,58.053,0,0,1,29.86,73.989,27.232,27.232,0,0,1,4.943,60.352a27.753,27.753,0,0,0,25.889-3.579c-9.313.5-18.143-7.836-18.2-17.156C20.562,45.9,32.7,41.2,39.557,33.754S50.52,16.56,57.919,9.651c10.4-9.7,26.6-12.191,39.851-7.015s23.237,17.4,26.763,31.178C127,43.482,125.754,86.889,106.782,77.3Z" transform="translate(-0.001 0.004)"/></g></g></svg>